# xmcd
#
# Track frame offsets:
#	150
#	27087
#	46867
#	72347
#	93770
#	113712
#	129397
#	148112
#	172677
#	186937
#
# Disc length: 2706 seconds
#
# Revision: 0
# Processed by: cddbd v1.4PL0 Copyright (c) Steve Scherf et al.
# Submitted via: audiograbber 1.82.02
#
DISCID=7c0a900a
DTITLE=Lester Coombs - Mangrove Madness
DYEAR=1900
DGENRE=Pop
TTITLE0=Ten Years Old
TTITLE1=Hug-A-Dug
TTITLE2=Bird Of Paradise
TTITLE3=Dirty Old Man
TTITLE4=Dance In The Mangrove
TTITLE5=Rough Edges
TTITLE6=The Phantom
TTITLE7=Ricketty Shack
TTITLE8=The Quey
TTITLE9=Holding On Dancin'
EXTD=
EXTT0=
EXTT1=
EXTT2=
EXTT3=
EXTT4=
EXTT5=
EXTT6=
EXTT7=
EXTT8=
EXTT9=
PLAYORDER=
